# xmcd
#
# Track frame offsets:
#	150
#	29781
#	44474
#	56067
#	70347
#	84997
#	93805
#	108377
#	120644
#	133352
#	151749
#	166352
#	180492
#	196177
#	208609
#	222818
#	228737
#	255814
#	276639
#	290743
#	313613
#	332286
#
# Disc length: 4677 seconds
#
# Revision: 1
# Processed by: cddbd v1.5.2PL0 Copyright (c) Steve Scherf et al.
# Submitted via: audiograbber 1.83.01
#
DISCID=43124316
DTITLE=NOTIS SFAKIANAKIS (BY DJ ZRAF) - мувтес... лацийес
DYEAR=2007
DGENRE=каийа
TTITLE0=сустгла
TTITLE1=пая' то дяоло
TTITLE2=лгпыс еилаи тяеккос
TTITLE3=ацаклата
TTITLE4=ока та с' ацапы
TTITLE5=еимаи г сйеьг лоу тяеккг
TTITLE6=с' амафгты
TTITLE7=папаяоума
TTITLE8=хусиастгйа
TTITLE9=лиа латиа соу ломо жтамеи
TTITLE10=окос о йослос еисаи
TTITLE11=дуо веияоболбидес
TTITLE12=ма ваяеис
TTITLE13=дем евеи лахеи м' ацапаеи
TTITLE14=евеис том тяопо
TTITLE15=авягсто йояли
TTITLE16=то тяаимо, сто стауяодяоли, пес тгс ма еяхеи, жеццаяи вкыло, с' айокоу
TTITLE16=хы
TTITLE17=олояжотеяо ьелла
TTITLE18=лгм сумевифеис
TTITLE19=вамолаи йаядиа лоу
TTITLE20=циа семаме жобалаи
TTITLE21=димеи та жикиа
EXTD=
EXTT0=
EXTT1=
EXTT2=
EXTT3=
EXTT4=
EXTT5=
EXTT6=
EXTT7=
EXTT8=
EXTT9=
EXTT10=
EXTT11=
EXTT12=
EXTT13=
EXTT14=
EXTT15=
EXTT16=
EXTT17=
EXTT18=
EXTT19=
EXTT20=
EXTT21=
PLAYORDER=
